# xmcd CD database file
#
# Track frame offsets:
#	150
#	17954
#	41494
#	67996
#	92172
#	120151
#	135307
#	158809
#	186750
#	216210
#	240709
#	262684
#	296098
#
# Disc length: 4274 seconds
#
# Revision: 1
# Processed by: cddbd v1.5.2PL0 Copyright (c) Steve Scherf et al.
# Submitted via: CDex 1.51
#
DISCID=ac10b00d
DTITLE=Robert Glasper Experiment - Black Radio [Japan Edition]
DYEAR=2012
DGENRE=Jazz
TTITLE0=Lift Off feat. Shafiq Husayn/Mic Check
TTITLE1=Afro Blue feat. Erykah Badu
TTITLE2=Cherish The Day feat. Lalah Hathaway
TTITLE3=Always Shine featuring Lupe Fiasco and Bilal
TTITLE4=Gonna Be Alright (F.T.B.) feat. Ledisi
TTITLE5=Move Love feat. King
TTITLE6=Ah Yeah feat. Musiq Soulchild and Chrisette Michele
TTITLE7=The Consequences Of Jealousy feat. Meshell Ndegeocello
TTITLE8=Why Do We Try feat. Stokley Williams
TTITLE9=Black Radio feat. Yasiinbey (Mos Def)
TTITLE10=Letter To Hermione feat. Bilal
TTITLE11=Smells Like Teen Spirit
TTITLE12=Twice [Bonus Track for Japan Only]
EXTD=YEAR: 2012
EXTT0=
EXTT1=
EXTT2=
EXTT3=
EXTT4=
EXTT5=
EXTT6=
EXTT7=
EXTT8=
EXTT9=
EXTT10=
EXTT11=
EXTT12=
PLAYORDER=
